<?xml version="1.0" encoding="UTF-8" standalone="no"?>
<svg
   xmlns:dc="http://purl.org/dc/elements/1.1/"
   xmlns:cc="http://creativecommons.org/ns#"
   xmlns:rdf="http://www.w3.org/1999/02/22-rdf-syntax-ns#"
   xmlns:svg="http://www.w3.org/2000/svg"
   xmlns="http://www.w3.org/2000/svg"
   xmlns:sodipodi="http://sodipodi.sourceforge.net/DTD/sodipodi-0.dtd"
   xmlns:inkscape="http://www.inkscape.org/namespaces/inkscape"
   id="svg8"
   version="1.1"
   viewBox="0 0 83.823295 83.823295"
   height="83.823296mm"
   width="83.823296mm"
   sodipodi:docname="star_polygon.svg"
   inkscape:version="1.0beta2 (2b71d25, 2019-12-03)">
  <sodipodi:namedview
     pagecolor="#ffffff"
     bordercolor="#666666"
     inkscape:document-rotation="0"
     borderopacity="1"
     objecttolerance="10"
     gridtolerance="10"
     guidetolerance="10"
     inkscape:pageopacity="0"
     inkscape:pageshadow="2"
     inkscape:window-width="1834"
     inkscape:window-height="1191"
     id="namedview1632"
     showgrid="false"
     fit-margin-top="0"
     fit-margin-left="0"
     fit-margin-right="0"
     fit-margin-bottom="0"
     inkscape:pagecheckerboard="true"
     showguides="true"
     inkscape:guide-bbox="true"
     inkscape:zoom="3.102782"
     inkscape:cx="140.6802"
     inkscape:cy="168.71955"
     inkscape:window-x="342"
     inkscape:window-y="23"
     inkscape:window-maximized="0"
     inkscape:current-layer="svg8" />
  <defs
     id="defs2" />
  <metadata
     id="metadata5">
    <rdf:RDF>
      <cc:Work
         rdf:about="">
        <dc:format>image/svg+xml</dc:format>
        <dc:type
           rdf:resource="http://purl.org/dc/dcmitype/StillImage" />
        <dc:title />
      </cc:Work>
    </rdf:RDF>
  </metadata>
  <path
     id="30"
     style="opacity:1;mix-blend-mode:normal;fill:#e6e6e6;fill-opacity:1;stroke:#333333;stroke-width:1.6;stroke-linecap:butt;stroke-linejoin:round;stroke-miterlimit:4;stroke-dasharray:none;stroke-opacity:1"
     d="M 127.03711,0.80078125 112.29688,46.53125 113.42969,91.130859 72.988281,72.988281 24.611328,69.208984 46.53125,112.29688 l 32.505859,30.23437 -41.576171,15.875 -36.66015675,31.36914 45.73046875,14.74023 44.599609,-1.13281 -18.142578,40.44141 -3.779297,48.37695 43.087896,-21.92187 30.23437,-32.50391 15.875,41.57617 31.36914,36.66016 14.74023,-45.73242 -1.13281,-44.59766 40.44141,18.14258 48.37695,3.7793 -21.92187,-43.0879 -32.50391,-30.23632 41.57617,-15.87305 36.66016,-31.36914 -45.73242,-14.74023 -44.59766,1.13281 18.14258,-40.441409 3.7793,-48.376953 -43.0879,21.919922 -30.23632,32.505859 -15.87305,-41.576171 z m 15.49414,78.61328075 15.875,18.519532 7.9375,20.787106 15.11719,-16.25195 21.54297,-10.960938 -1.88868,24.189458 -9.07031,20.03125 22.29883,-0.37696 23.05469,7.17969 -18.51953,15.875 -20.78711,7.9375 16.25195,15.11719 10.96094,21.54297 -24.18946,-1.88868 -20.03125,-9.07031 0.37696,22.29883 -7.18164,23.05469 -15.87305,-18.51953 -7.9375,-20.78711 -15.11719,16.25195 -21.54297,10.96094 1.88868,-24.18946 9.07031,-20.03125 -22.29883,0.37696 -23.054688,-7.18164 18.519532,-15.87305 20.787106,-7.9375 -16.25195,-15.11719 -10.960938,-21.54297 24.189458,1.88868 20.03125,9.07031 -0.37696,-22.29883 z"
     transform="scale(0.26458332)"
     inkscape:connector-curvature="0" />
  <path
     inkscape:connector-curvature="0"
     style="fill:none;stroke:#333333;stroke-width:0.132292;stroke-linecap:butt;stroke-linejoin:round;stroke-miterlimit:4;stroke-dasharray:none;stroke-opacity:1"
     d="m 0.2116453,50.211645 9.7,-8.3 11.0999997,4.2 3.1,7.7 -11.8,0.3 z"
     id="0" />
  <path
     inkscape:connector-curvature="0"
     style="fill:none;stroke:#333333;stroke-width:0.132292;stroke-linecap:butt;stroke-linejoin:round;stroke-miterlimit:4;stroke-dasharray:none;stroke-opacity:1"
     d="m 9.9116453,41.911645 10.9999997,-4.2 6.2,-1.9 -1.2,6.1 -4.9,4.2 z"
     id="1" />
  <path
     inkscape:connector-curvature="0"
     style="fill:none;stroke:#333333;stroke-width:0.132292;stroke-linecap:butt;stroke-linejoin:round;stroke-miterlimit:4;stroke-dasharray:none;stroke-opacity:1"
     d="m 21.011645,46.111645 6.1,1.9 3.5,5.2 -0.5,6.4 -6,-5.8 z"
     id="2" />
  <path
     inkscape:connector-curvature="0"
     style="fill:none;stroke:#333333;stroke-width:0.132292;stroke-linecap:butt;stroke-linejoin:round;stroke-miterlimit:4;stroke-dasharray:none;stroke-opacity:1"
     d="m 6.5116453,18.311645 12.7999997,1 4.9,10.8 -3.3,7.6 -8.6,-8 z"
     id="3" />
  <path
     inkscape:connector-curvature="0"
     style="fill:none;stroke:#333333;stroke-width:0.132292;stroke-linecap:butt;stroke-linejoin:round;stroke-miterlimit:4;stroke-dasharray:none;stroke-opacity:1"
     d="m 27.111645,35.811645 -6.2,1.9 3.3,-7.6 z"
     id="4" />
  <path
     inkscape:connector-curvature="0"
     style="fill:none;stroke:#333333;stroke-width:0.132292;stroke-linecap:butt;stroke-linejoin:round;stroke-miterlimit:4;stroke-dasharray:none;stroke-opacity:1"
     d="m 19.311645,19.311645 10.7,4.8 5.8,3 -5.2,3.5 -6.4,-0.5 z"
     id="5" />
  <path
     inkscape:connector-curvature="0"
     style="fill:none;stroke:#333333;stroke-width:0.132292;stroke-linecap:butt;stroke-linejoin:round;stroke-miterlimit:4;stroke-dasharray:none;stroke-opacity:1"
     d="m 25.911645,41.911645 1.2,-6.1 4.3,4 z"
     id="6" />
  <path
     inkscape:connector-curvature="0"
     style="fill:none;stroke:#333333;stroke-width:0.132292;stroke-linecap:butt;stroke-linejoin:round;stroke-miterlimit:4;stroke-dasharray:none;stroke-opacity:1"
     d="m 30.111645,59.611645 -0.4,11.9 -11.4,5.8 1,-12.8 4.8,-10.7 z"
     id="7" />
  <path
     inkscape:connector-curvature="0"
     style="fill:none;stroke:#333333;stroke-width:0.132292;stroke-linecap:butt;stroke-linejoin:round;stroke-miterlimit:4;stroke-dasharray:none;stroke-opacity:1"
     d="m 27.111645,48.011645 5.9,-0.1 -2.4,5.3 z"
     id="8" />
  <path
     inkscape:connector-curvature="0"
     style="fill:none;stroke:#333333;stroke-width:0.132292;stroke-linecap:butt;stroke-linejoin:round;stroke-miterlimit:4;stroke-dasharray:none;stroke-opacity:1"
     d="m 41.911645,9.9116453 -4.2,11.0999997 -7.7,3.1 -0.3,-11.8 3.9,-12.0999997 z"
     id="9" />
  <path
     inkscape:connector-curvature="0"
     style="fill:none;stroke:#333333;stroke-width:0.132292;stroke-linecap:butt;stroke-linejoin:round;stroke-miterlimit:4;stroke-dasharray:none;stroke-opacity:1"
     d="m 30.611645,30.611645 5.2,-3.5 0.1,5.9 z"
     id="10" />
  <path
     inkscape:connector-curvature="0"
     style="fill:none;stroke:#333333;stroke-width:0.132292;stroke-linecap:butt;stroke-linejoin:round;stroke-miterlimit:4;stroke-dasharray:none;stroke-opacity:1"
     d="m 30.111645,59.611645 5.7,-2.9 6.1,1.2 -4.2,5 -8,8.6 z"
     id="11" />
  <path
     inkscape:connector-curvature="0"
     style="fill:none;stroke:#333333;stroke-width:0.132292;stroke-linecap:butt;stroke-linejoin:round;stroke-miterlimit:4;stroke-dasharray:none;stroke-opacity:1"
     d="m 41.911645,57.911645 -6.1,-1.2 4,-4.3 z"
     id="12" />
  <path
     inkscape:connector-curvature="0"
     style="fill:none;stroke:#333333;stroke-width:0.132292;stroke-linecap:butt;stroke-linejoin:round;stroke-miterlimit:4;stroke-dasharray:none;stroke-opacity:1"
     d="m 46.111645,62.811645 -4.2,11.1 -4.2,-11 4.2,-5 z"
     id="13" />
  <path
     inkscape:connector-curvature="0"
     style="fill:none;stroke:#333333;stroke-width:0.132292;stroke-linecap:butt;stroke-linejoin:round;stroke-miterlimit:4;stroke-dasharray:none;stroke-opacity:1"
     d="m 54.111645,71.511645 -3.9,12.1 -8.3,-9.7 4.2,-11.1 7.7,-3.1 z"
     id="14" />
  <path
     inkscape:connector-curvature="0"
     style="fill:none;stroke:#333333;stroke-width:0.132292;stroke-linecap:butt;stroke-linejoin:round;stroke-miterlimit:4;stroke-dasharray:none;stroke-opacity:1"
     d="m 46.111645,62.811645 1.9,-6.1 5.2,-3.5 6.4,0.5 -5.8,6 z"
     id="15" />
  <path
     inkscape:connector-curvature="0"
     style="fill:none;stroke:#333333;stroke-width:0.132292;stroke-linecap:butt;stroke-linejoin:round;stroke-miterlimit:4;stroke-dasharray:none;stroke-opacity:1"
     d="m 48.011645,56.711645 -0.1,-5.9 5.3,2.4 z"
     id="16" />
  <path
     inkscape:connector-curvature="0"
     style="fill:none;stroke:#333333;stroke-width:0.132292;stroke-linecap:butt;stroke-linejoin:round;stroke-miterlimit:4;stroke-dasharray:none;stroke-opacity:1"
     d="m 37.711645,21.011645 -1.9,6.1 -5.8,-3 z"
     id="17" />
  <path
     inkscape:connector-curvature="0"
     style="fill:none;stroke:#333333;stroke-width:0.132292;stroke-linecap:butt;stroke-linejoin:round;stroke-miterlimit:4;stroke-dasharray:none;stroke-opacity:1"
     d="m 46.111645,20.911645 1.9,6.2 -6.1,-1.2 -4.2,-4.9 4.2,-11.0999997 z"
     id="18" />
  <path
     inkscape:connector-curvature="0"
     style="fill:none;stroke:#333333;stroke-width:0.132292;stroke-linecap:butt;stroke-linejoin:round;stroke-miterlimit:4;stroke-dasharray:none;stroke-opacity:1"
     d="m 48.011645,27.111645 -4,4.3 -2.1,-5.5 z"
     id="19" />
  <path
     inkscape:connector-curvature="0"
     style="fill:none;stroke:#333333;stroke-width:0.132292;stroke-linecap:butt;stroke-linejoin:round;stroke-miterlimit:4;stroke-dasharray:none;stroke-opacity:1"
     d="m 48.011645,27.111645 -1.9,-6.2 8,-8.6 -0.4,11.9 z"
     id="20" />
  <path
     inkscape:connector-curvature="0"
     style="fill:none;stroke:#333333;stroke-width:0.132292;stroke-linecap:butt;stroke-linejoin:round;stroke-miterlimit:4;stroke-dasharray:none;stroke-opacity:1"
     d="m 52.411645,44.011645 5.5,-2.1 5,4.2 -6.2,1.9 z"
     id="21" />
  <path
     inkscape:connector-curvature="0"
     style="fill:none;stroke:#333333;stroke-width:0.132292;stroke-linecap:butt;stroke-linejoin:round;stroke-miterlimit:4;stroke-dasharray:none;stroke-opacity:1"
     d="m 57.911645,41.911645 4.9,-4.2 11.1,4.2 -11,4.2 z"
     id="22" />
  <path
     inkscape:connector-curvature="0"
     style="fill:none;stroke:#333333;stroke-width:0.132292;stroke-linecap:butt;stroke-linejoin:round;stroke-miterlimit:4;stroke-dasharray:none;stroke-opacity:1"
     d="m 50.811645,35.911645 2.4,-5.3 6.5,-0.6 -3,5.8 z"
     id="23" />
  <path
     inkscape:connector-curvature="0"
     style="fill:none;stroke:#333333;stroke-width:0.132292;stroke-linecap:butt;stroke-linejoin:round;stroke-miterlimit:4;stroke-dasharray:none;stroke-opacity:1"
     d="m 53.211645,30.611645 0.5,-6.4 10.8,-4.9 -4.8,10.7 z"
     id="24" />
  <path
     inkscape:connector-curvature="0"
     style="fill:none;stroke:#333333;stroke-width:0.132292;stroke-linecap:butt;stroke-linejoin:round;stroke-miterlimit:4;stroke-dasharray:none;stroke-opacity:1"
     d="m 64.511645,19.311645 -10.8,4.9 0.4,-11.9 11.4,-5.7999997 z"
     id="25" />
  <path
     inkscape:connector-curvature="0"
     style="fill:none;stroke:#333333;stroke-width:0.132292;stroke-linecap:butt;stroke-linejoin:round;stroke-miterlimit:4;stroke-dasharray:none;stroke-opacity:1"
     d="m 62.911645,46.111645 8.6,8 -11.9,-0.4 -2.9,-5.7 z"
     id="26" />
  <path
     inkscape:connector-curvature="0"
     style="fill:none;stroke:#333333;stroke-width:0.132292;stroke-linecap:butt;stroke-linejoin:round;stroke-miterlimit:4;stroke-dasharray:none;stroke-opacity:1"
     d="m 53.811645,59.711645 5.8,-6 11.9,0.4 5.8,11.4 -12.8,-1 z"
     id="27" />
  <path
     inkscape:connector-curvature="0"
     style="fill:none;stroke:#333333;stroke-width:0.132292;stroke-linecap:butt;stroke-linejoin:round;stroke-miterlimit:4;stroke-dasharray:none;stroke-opacity:1"
     d="m 56.711645,35.811645 3,-5.8 11.8,-0.3 -8.7,8 z"
     id="28" />
  <path
     inkscape:connector-curvature="0"
     style="fill:none;stroke:#333333;stroke-width:0.132292;stroke-linecap:butt;stroke-linejoin:round;stroke-miterlimit:4;stroke-dasharray:none;stroke-opacity:1"
     d="m 62.811645,37.711645 8.7,-8 12.1,3.9 -9.7,8.3 z"
     id="29" />
</svg>
